{"title":"True Lies (1994) Arnold Schwarzenegger (DVDrip,OPT.MULTISUBS)","uid":4468797,"size":750712590,"categoryP":"video","categoryS":"movies","magnet":"?xt=urn:btih:ce2a4c8eea91b0d202aa4a373eaad787788d9d9d&amp;dn=True+Lies+%281994%29+Arnold+Schwarzenegger+%28DVDrip%2COPT.MULTISUBS%29&amp;tr=udp%3A%2F%2Ftracker.openbittorrent.com%3A80&amp;tr=udp%3A%2F%2Fopen.demonii.com%3A1337&amp;tr=udp%3A%2F%2Ftracker.coppersurfer.tk%3A6969&amp;tr=udp%3A%2F%2Fexodus.desync.com%3A6969","seeders":2,"leechers":0,"uploader":"Kuthumi","files":-1,"time":1225033894,"description":"Optional subtitles in separate idx/sub files:\nBulgarian, Czech, Danish, Dutch, English, Finnish, Greek, Hungarian, Norwegian, Polish, Portugese, Swedish, Turkish\n &lt;a href=&quot;\nhttp://www.imdb.com/title/tt0111503/&quot; rel=&quot;nofollow&quot; target=&quot;_NEW&quot;&gt;\nhttp://www.imdb.com/title/tt0111503/&lt;/a&gt;\n\nWith Jamie Lee Curtis, Tia Carrere, Bill Paxton and Tom Arnold.\n\nClassic action comedy where Arnold shows that he has both self irony and humour. I had not suspected that until I saw this film.\n\nMy new ripping procedure now produces decent quality for such a long film compressed into just 700 MiB. I enclose a sample for ye weak in faith.\n\nWidescreen XviD 2-pass 720x304, really greast stereo AC3.\nBurn tested, runs well in both my standalone DivX players.\n\nFormat/Info                      : Audio Video Interleave\nFile size                        : 693 MiB\nDuration                         : 2h 15mn\nOveral bit rate                  : 716 Kbps\n\nVideo\nFormat                           : MPEG-4 Visual\nFormat profile                   : Streaming Video@L1\nFormat settings, BVOP            : Yes\nFormat settings, QPel            : No\nFormat settings, GMC             : No warppoints\nFormat settings, Matrix          : Default\nMuxing mode                      : Packet Bitstream\nCodec ID                         : XVID\nCodec ID/Hint                    : XviD\nDuration                         : 2h 15mn\nBit rate                         : 578 Kbps\nWidth                            : 720 pixels\nHeight                           : 304 pixels\nDisplay aspect ratio             : 2.35\nFrame rate                       : 25.000 fps\nResolution                       : 8 bits\nColorimetry                      : 4:2:0\nScan type                        : Progressive\nBits/(Pixel*Frame)               : 0.106\nStream size                      : 560 MiB\nWriting library                  : XviD 1.2.0.dev47 (UTC 2006-11-01)\n\nAudio\nFormat                           : MPEG Audio\nFormat version                   : Version 1\nFormat profile                   : Layer 3\nCodec ID                         : 55\nCodec ID/Hint                    : MP3\nDuration                         : 2h 15mn\nBit rate mode                    : Constant\nBit rate                         : 128 Kbps\nMinimum bit rate                 : 128 Kbps\nChannel(s)                       : 2 channels\nSampling rate                    : 48.0 KHz\nResolution                       : 16 bits\nStream size                      : 124 MiB\nWriting library                  : LAME3.97 \nEncoding settings                : CBR\n\nSource: PAL native 7.3 GiB (note that PAL/NTSC will give no problems for avi \nfiles).","torrent":{"xt":"urn:btih:ce2a4c8eea91b0d202aa4a373eaad787788d9d9d","amp;dn":"True+Lies+%281994%29+Arnold+Schwarzenegger+%28DVDrip%2COPT.MULTISUBS%29","amp;tr":["udp%3A%2F%2Ftracker.openbittorrent.com%3A80","udp%3A%2F%2Fopen.demonii.com%3A1337","udp%3A%2F%2Ftracker.coppersurfer.tk%3A6969","udp%3A%2F%2Fexodus.desync.com%3A6969"],"infoHash":"ce2a4c8eea91b0d202aa4a373eaad787788d9d9d","infoHashBuffer":{"type":"Buffer","data":[206,42,76,142,234,145,176,210,2,170,74,55,62,170,215,135,120,141,157,157]},"announce":[],"urlList":[]}}